<mxfile host="app.diagrams.net" modified="2022-01-31T21:04:52.673Z" agent="5.0 (X11)" etag="7IZZm1S60_BHtx-dleSa" version="15.7.4" type="github">
  <diagram id="Bi8yQc8i4gSCwa7ISA3M" name="Page-1">
    <mxGraphModel dx="1038" dy="547" grid="1" gridSize="10" guides="1" tooltips="1" connect="1" arrows="0" fold="1" page="1" pageScale="1" pageWidth="850" pageHeight="1100" math="0" shadow="0">
      <root>
        <mxCell id="0" />
        <mxCell id="1" parent="0" />
        <mxCell id="HOgNb5vJPWKjZWPz9B7e-17" style="edgeStyle=orthogonalEdgeStyle;rounded=1;orthogonalLoop=1;jettySize=auto;html=1;exitX=0;exitY=0.5;exitDx=0;exitDy=0;entryX=1;entryY=0.5;entryDx=0;entryDy=0;fontSize=14;endArrow=none;endFill=0;strokeWidth=2;" parent="1" source="HOgNb5vJPWKjZWPz9B7e-1" target="HOgNb5vJPWKjZWPz9B7e-3" edge="1">
          <mxGeometry relative="1" as="geometry">
            <mxPoint x="311" y="150" as="sourcePoint" />
          </mxGeometry>
        </mxCell>
        <mxCell id="HOgNb5vJPWKjZWPz9B7e-18" style="edgeStyle=orthogonalEdgeStyle;rounded=1;orthogonalLoop=1;jettySize=auto;html=1;exitX=0;exitY=0.5;exitDx=0;exitDy=0;entryX=1;entryY=0.5;entryDx=0;entryDy=0;fontSize=14;endArrow=none;endFill=0;strokeWidth=2;" parent="1" source="HOgNb5vJPWKjZWPz9B7e-1" target="lwvj8f8YE6O9QnCj63W--41" edge="1">
          <mxGeometry relative="1" as="geometry">
            <mxPoint x="311" y="150" as="sourcePoint" />
            <mxPoint x="250" y="290" as="targetPoint" />
          </mxGeometry>
        </mxCell>
        <mxCell id="HOgNb5vJPWKjZWPz9B7e-20" style="edgeStyle=orthogonalEdgeStyle;rounded=1;orthogonalLoop=1;jettySize=auto;html=1;exitX=0;exitY=0.5;exitDx=0;exitDy=0;entryX=1;entryY=0.5;entryDx=0;entryDy=0;fontSize=14;endArrow=none;endFill=0;strokeWidth=2;" parent="1" source="HOgNb5vJPWKjZWPz9B7e-1" target="HOgNb5vJPWKjZWPz9B7e-5" edge="1">
          <mxGeometry relative="1" as="geometry">
            <mxPoint x="311" y="150" as="sourcePoint" />
          </mxGeometry>
        </mxCell>
        <mxCell id="HOgNb5vJPWKjZWPz9B7e-21" style="edgeStyle=orthogonalEdgeStyle;rounded=1;orthogonalLoop=1;jettySize=auto;html=1;exitX=0;exitY=0.5;exitDx=0;exitDy=0;entryX=1;entryY=0.5;entryDx=0;entryDy=0;fontSize=14;endArrow=none;endFill=0;strokeWidth=2;" parent="1" source="HOgNb5vJPWKjZWPz9B7e-1" target="HOgNb5vJPWKjZWPz9B7e-6" edge="1">
          <mxGeometry relative="1" as="geometry">
            <mxPoint x="311" y="150" as="sourcePoint" />
          </mxGeometry>
        </mxCell>
        <mxCell id="HOgNb5vJPWKjZWPz9B7e-24" style="edgeStyle=orthogonalEdgeStyle;rounded=1;orthogonalLoop=1;jettySize=auto;html=1;exitX=1;exitY=0.5;exitDx=0;exitDy=0;entryX=0;entryY=0.5;entryDx=0;entryDy=0;fontSize=14;endArrow=none;endFill=0;strokeWidth=2;" parent="1" source="HOgNb5vJPWKjZWPz9B7e-1" target="HOgNb5vJPWKjZWPz9B7e-7" edge="1">
          <mxGeometry relative="1" as="geometry" />
        </mxCell>
        <mxCell id="HOgNb5vJPWKjZWPz9B7e-25" style="edgeStyle=orthogonalEdgeStyle;rounded=1;orthogonalLoop=1;jettySize=auto;html=1;exitX=1;exitY=0.5;exitDx=0;exitDy=0;entryX=0;entryY=0.5;entryDx=0;entryDy=0;fontSize=14;endArrow=none;endFill=0;strokeWidth=2;" parent="1" source="HOgNb5vJPWKjZWPz9B7e-1" target="HOgNb5vJPWKjZWPz9B7e-10" edge="1">
          <mxGeometry relative="1" as="geometry" />
        </mxCell>
        <mxCell id="HOgNb5vJPWKjZWPz9B7e-28" style="edgeStyle=orthogonalEdgeStyle;rounded=1;orthogonalLoop=1;jettySize=auto;html=1;exitX=0.5;exitY=1;exitDx=0;exitDy=0;fontSize=14;endArrow=none;endFill=0;strokeWidth=2;" parent="1" source="HOgNb5vJPWKjZWPz9B7e-1" target="HOgNb5vJPWKjZWPz9B7e-27" edge="1">
          <mxGeometry relative="1" as="geometry" />
        </mxCell>
        <mxCell id="lwvj8f8YE6O9QnCj63W--19" style="edgeStyle=orthogonalEdgeStyle;rounded=1;orthogonalLoop=1;jettySize=auto;html=1;exitX=1;exitY=0.5;exitDx=0;exitDy=0;entryX=0;entryY=0.5;entryDx=0;entryDy=0;endArrow=none;endFill=0;strokeWidth=2;" parent="1" source="HOgNb5vJPWKjZWPz9B7e-1" target="HOgNb5vJPWKjZWPz9B7e-9" edge="1">
          <mxGeometry relative="1" as="geometry" />
        </mxCell>
        <mxCell id="lwvj8f8YE6O9QnCj63W--40" style="edgeStyle=orthogonalEdgeStyle;rounded=1;orthogonalLoop=1;jettySize=auto;html=1;exitX=1;exitY=0.5;exitDx=0;exitDy=0;entryX=0;entryY=0.5;entryDx=0;entryDy=0;endArrow=none;endFill=0;strokeWidth=2;" parent="1" source="HOgNb5vJPWKjZWPz9B7e-1" target="lwvj8f8YE6O9QnCj63W--36" edge="1">
          <mxGeometry relative="1" as="geometry" />
        </mxCell>
        <mxCell id="lwvj8f8YE6O9QnCj63W--48" style="edgeStyle=orthogonalEdgeStyle;rounded=1;orthogonalLoop=1;jettySize=auto;html=1;exitX=1;exitY=0.5;exitDx=0;exitDy=0;entryX=0;entryY=0.5;entryDx=0;entryDy=0;endArrow=none;endFill=0;strokeWidth=2;" parent="1" source="HOgNb5vJPWKjZWPz9B7e-1" target="lwvj8f8YE6O9QnCj63W--47" edge="1">
          <mxGeometry relative="1" as="geometry" />
        </mxCell>
        <mxCell id="HOgNb5vJPWKjZWPz9B7e-1" value="&lt;font style=&quot;font-size: 14px;&quot;&gt;Learn the Fundamentals&lt;/font&gt;" style="rounded=1;whiteSpace=wrap;html=1;fillColor=#fff2cc;strokeColor=#d6b656;strokeWidth=2;fontSize=14;" parent="1" vertex="1">
          <mxGeometry x="320" y="260" width="200" height="40" as="geometry" />
        </mxCell>
        <mxCell id="HOgNb5vJPWKjZWPz9B7e-19" style="edgeStyle=orthogonalEdgeStyle;rounded=1;orthogonalLoop=1;jettySize=auto;html=1;exitX=0.5;exitY=1;exitDx=0;exitDy=0;entryX=0.5;entryY=0;entryDx=0;entryDy=0;fontSize=14;endArrow=none;endFill=0;strokeWidth=2;" parent="1" source="HOgNb5vJPWKjZWPz9B7e-2" target="HOgNb5vJPWKjZWPz9B7e-1" edge="1">
          <mxGeometry relative="1" as="geometry" />
        </mxCell>
        <mxCell id="HOgNb5vJPWKjZWPz9B7e-2" value="&lt;div style=&quot;font-size: 32px&quot;&gt;&lt;font style=&quot;font-size: 32px&quot;&gt;&lt;b&gt;&lt;font style=&quot;font-size: 32px&quot;&gt;C#&lt;/font&gt;&lt;/b&gt;&lt;/font&gt;&lt;/div&gt;" style="text;html=1;strokeColor=none;fillColor=none;align=center;verticalAlign=middle;whiteSpace=wrap;rounded=0;fontSize=24;" parent="1" vertex="1">
          <mxGeometry x="385" y="40" width="70" height="40" as="geometry" />
        </mxCell>
        <mxCell id="HOgNb5vJPWKjZWPz9B7e-3" value="&lt;div style=&quot;font-size: 14px;&quot;&gt;Basic Syntax&lt;/div&gt;" style="rounded=1;whiteSpace=wrap;html=1;fillColor=#dae8fc;strokeColor=#6c8ebf;strokeWidth=2;fontSize=14;" parent="1" vertex="1">
          <mxGeometry x="140" y="130" width="100" height="40" as="geometry" />
        </mxCell>
        <UserObject label="&lt;div style=&quot;font-size: 14px&quot;&gt;&lt;a href=&quot;https://docs.microsoft.com/en-us/dotnet/csharp/language-reference/statements/selection-statements&quot;&gt;Conditionals&lt;/a&gt;&lt;/div&gt;" link="https://docs.microsoft.com/en-us/dotnet/csharp/language-reference/statements/selection-statements" linkTarget="_blank" id="HOgNb5vJPWKjZWPz9B7e-5">
          <mxCell style="rounded=1;whiteSpace=wrap;html=1;fillColor=#dae8fc;strokeColor=#6c8ebf;strokeWidth=2;fontSize=14;" parent="1" vertex="1">
            <mxGeometry x="140" y="390" width="100" height="40" as="geometry" />
          </mxCell>
        </UserObject>
        <UserObject label="&lt;a href=&quot;https://docs.microsoft.com/en-us/dotnet/csharp/methods&quot;&gt;Methods&lt;/a&gt;" link="https://docs.microsoft.com/en-us/dotnet/csharp/methods" linkTarget="_blank" id="HOgNb5vJPWKjZWPz9B7e-6">
          <mxCell style="rounded=1;whiteSpace=wrap;html=1;fillColor=#dae8fc;strokeColor=#6c8ebf;strokeWidth=2;fontSize=14;" parent="1" vertex="1">
            <mxGeometry x="160" y="440" width="80" height="40" as="geometry" />
          </mxCell>
        </UserObject>
        <UserObject label="&lt;a href=&quot;https://docs.microsoft.com/en-us/dotnet/csharp/fundamentals/types/namespaces&quot;&gt;Namespaces&lt;/a&gt;" link="https://docs.microsoft.com/en-us/dotnet/csharp/fundamentals/types/namespaces" linkTarget="_blank" id="HOgNb5vJPWKjZWPz9B7e-7">
          <mxCell style="rounded=1;whiteSpace=wrap;html=1;fillColor=#dae8fc;strokeColor=#6c8ebf;strokeWidth=2;fontSize=14;" parent="1" vertex="1">
            <mxGeometry x="599" y="340" width="101" height="40" as="geometry" />
          </mxCell>
        </UserObject>
        <UserObject label="&lt;div style=&quot;font-size: 14px&quot;&gt;&lt;a href=&quot;https://docs.microsoft.com/en-us/dotnet/csharp/programming-guide/concepts/iterators&quot;&gt;Iteration&lt;/a&gt;&lt;/div&gt;" link="https://docs.microsoft.com/en-us/dotnet/csharp/language-reference/statements/iteration-statements" linkTarget="_blank" id="HOgNb5vJPWKjZWPz9B7e-9">
          <mxCell style="rounded=1;whiteSpace=wrap;html=1;fillColor=#dae8fc;strokeColor=#6c8ebf;strokeWidth=2;fontSize=14;" parent="1" vertex="1">
            <mxGeometry x="599" y="290" width="71" height="40" as="geometry" />
          </mxCell>
        </UserObject>
        <UserObject label="&lt;div style=&quot;font-size: 14px&quot;&gt;&lt;a href=&quot;https://docs.microsoft.com/en-us/dotnet/csharp/language-reference/tokens/interpolated&quot;&gt;String Interpolation&lt;br style=&quot;font-size: 14px&quot;&gt;&lt;/a&gt;&lt;/div&gt;" link="https://docs.microsoft.com/en-us/dotnet/csharp/language-reference/tokens/interpolated" linkTarget="_blank" id="HOgNb5vJPWKjZWPz9B7e-10">
          <mxCell style="rounded=1;whiteSpace=wrap;html=1;fillColor=#dae8fc;strokeColor=#6c8ebf;strokeWidth=2;fontSize=14;" parent="1" vertex="1">
            <mxGeometry x="599" y="440" width="141" height="40" as="geometry" />
          </mxCell>
        </UserObject>
        <UserObject label="&lt;div style=&quot;font-size: 14px&quot;&gt;&lt;a href=&quot;https://docs.microsoft.com/en-us/dotnet/csharp/fundamentals/exceptions/exception-handling&quot;&gt;Exception Handling&lt;/a&gt;&lt;br style=&quot;font-size: 14px&quot;&gt;&lt;/div&gt;" link="https://docs.microsoft.com/en-us/dotnet/csharp/fundamentals/exceptions/exception-handling" linkTarget="_blank" id="HOgNb5vJPWKjZWPz9B7e-11">
          <mxCell style="rounded=1;whiteSpace=wrap;html=1;fillColor=#dae8fc;strokeColor=#6c8ebf;strokeWidth=2;fontSize=14;" parent="1" vertex="1">
            <mxGeometry x="599" y="490" width="141" height="40" as="geometry" />
          </mxCell>
        </UserObject>
        <mxCell id="HOgNb5vJPWKjZWPz9B7e-26" style="edgeStyle=orthogonalEdgeStyle;rounded=1;orthogonalLoop=1;jettySize=auto;html=1;exitX=1;exitY=0.5;exitDx=0;exitDy=0;entryX=0;entryY=0.5;entryDx=0;entryDy=0;fontSize=14;endArrow=none;endFill=0;strokeWidth=2;" parent="1" source="HOgNb5vJPWKjZWPz9B7e-1" target="HOgNb5vJPWKjZWPz9B7e-11" edge="1">
          <mxGeometry relative="1" as="geometry">
            <mxPoint x="530" y="160" as="sourcePoint" />
            <mxPoint x="609" y="260" as="targetPoint" />
          </mxGeometry>
        </mxCell>
        <mxCell id="HOgNb5vJPWKjZWPz9B7e-49" style="edgeStyle=orthogonalEdgeStyle;rounded=1;orthogonalLoop=1;jettySize=auto;html=1;exitX=1;exitY=0.5;exitDx=0;exitDy=0;entryX=0;entryY=0.5;entryDx=0;entryDy=0;fontSize=14;endArrow=none;endFill=0;strokeWidth=2;" parent="1" source="HOgNb5vJPWKjZWPz9B7e-27" target="HOgNb5vJPWKjZWPz9B7e-41" edge="1">
          <mxGeometry relative="1" as="geometry" />
        </mxCell>
        <mxCell id="HOgNb5vJPWKjZWPz9B7e-50" style="edgeStyle=orthogonalEdgeStyle;rounded=1;orthogonalLoop=1;jettySize=auto;html=1;exitX=1;exitY=0.5;exitDx=0;exitDy=0;entryX=0;entryY=0.5;entryDx=0;entryDy=0;fontSize=14;endArrow=none;endFill=0;strokeWidth=2;" parent="1" source="HOgNb5vJPWKjZWPz9B7e-27" target="HOgNb5vJPWKjZWPz9B7e-36" edge="1">
          <mxGeometry relative="1" as="geometry" />
        </mxCell>
        <mxCell id="TVtdVuU6rrKW41aySdb2-4" style="edgeStyle=orthogonalEdgeStyle;rounded=1;orthogonalLoop=1;jettySize=auto;html=1;exitX=0.5;exitY=1;exitDx=0;exitDy=0;fontSize=24;endArrow=none;endFill=0;strokeWidth=2;" parent="1" source="HOgNb5vJPWKjZWPz9B7e-27" target="TVtdVuU6rrKW41aySdb2-2" edge="1">
          <mxGeometry relative="1" as="geometry" />
        </mxCell>
        <mxCell id="lwvj8f8YE6O9QnCj63W--28" style="edgeStyle=orthogonalEdgeStyle;rounded=1;orthogonalLoop=1;jettySize=auto;html=1;exitX=0;exitY=0.5;exitDx=0;exitDy=0;entryX=1;entryY=0.5;entryDx=0;entryDy=0;endArrow=none;endFill=0;strokeWidth=2;" parent="1" source="HOgNb5vJPWKjZWPz9B7e-27" target="lwvj8f8YE6O9QnCj63W--2" edge="1">
          <mxGeometry relative="1" as="geometry" />
        </mxCell>
        <mxCell id="lwvj8f8YE6O9QnCj63W--46" style="edgeStyle=orthogonalEdgeStyle;rounded=1;orthogonalLoop=1;jettySize=auto;html=1;exitX=0;exitY=0.5;exitDx=0;exitDy=0;entryX=1;entryY=0.5;entryDx=0;entryDy=0;endArrow=none;endFill=0;strokeWidth=2;" parent="1" source="HOgNb5vJPWKjZWPz9B7e-27" target="HOgNb5vJPWKjZWPz9B7e-31" edge="1">
          <mxGeometry relative="1" as="geometry" />
        </mxCell>
        <mxCell id="HOgNb5vJPWKjZWPz9B7e-27" value="&lt;div style=&quot;font-size: 14px&quot;&gt;&lt;font style=&quot;font-size: 14px&quot;&gt;Object-Oriented Programming&lt;/font&gt;&lt;/div&gt;" style="rounded=1;whiteSpace=wrap;html=1;fillColor=#fff2cc;strokeColor=#d6b656;strokeWidth=2;" parent="1" vertex="1">
          <mxGeometry x="320" y="670" width="200" height="40" as="geometry" />
        </mxCell>
        <UserObject label="Encapsulation" link="https://docs.microsoft.com/en-us/dotnet/csharp/fundamentals/object-oriented/" id="HOgNb5vJPWKjZWPz9B7e-31">
          <mxCell style="swimlane;rounded=1;fontSize=14;strokeWidth=2;" parent="1" vertex="1">
            <mxGeometry x="10" y="540" width="231" height="150" as="geometry" />
          </mxCell>
        </UserObject>
        <UserObject label="&lt;a href=&quot;https://docs.microsoft.com/en-us/dotnet/csharp/fundamentals/types/classes&quot;&gt;Classes&lt;/a&gt;" link="https://docs.microsoft.com/en-us/dotnet/csharp/fundamentals/types/classes" linkTarget="_blank" id="HOgNb5vJPWKjZWPz9B7e-30">
          <mxCell style="rounded=1;whiteSpace=wrap;html=1;fillColor=#dae8fc;strokeColor=#6c8ebf;strokeWidth=2;fontSize=14;" parent="HOgNb5vJPWKjZWPz9B7e-31" vertex="1">
            <mxGeometry x="10" y="40" width="100" height="40" as="geometry" />
          </mxCell>
        </UserObject>
        <UserObject label="&lt;a href=&quot;https://docs.microsoft.com/en-us/dotnet/csharp/language-reference/builtin-types/struct&quot;&gt;Structs&lt;/a&gt;" link="https://docs.microsoft.com/en-us/dotnet/csharp/language-reference/builtin-types/struct" id="HOgNb5vJPWKjZWPz9B7e-34">
          <mxCell style="rounded=1;whiteSpace=wrap;html=1;fillColor=#dae8fc;strokeColor=#6c8ebf;strokeWidth=2;fontSize=14;" parent="HOgNb5vJPWKjZWPz9B7e-31" vertex="1">
            <mxGeometry x="120" y="40" width="100" height="40" as="geometry" />
          </mxCell>
        </UserObject>
        <UserObject label="&lt;a href=&quot;https://docs.microsoft.com/en-us/dotnet/csharp/fundamentals/types/records&quot;&gt;Records&lt;/a&gt;" link="https://docs.microsoft.com/en-us/dotnet/csharp/fundamentals/types/records" linkTarget="_blank" id="HOgNb5vJPWKjZWPz9B7e-35">
          <mxCell style="rounded=1;whiteSpace=wrap;html=1;fillColor=#dae8fc;strokeColor=#6c8ebf;strokeWidth=2;fontSize=14;" parent="HOgNb5vJPWKjZWPz9B7e-31" vertex="1">
            <mxGeometry x="10" y="90" width="100" height="40" as="geometry" />
          </mxCell>
        </UserObject>
        <mxCell id="HOgNb5vJPWKjZWPz9B7e-36" value="Inheritance" style="swimlane;rounded=1;fontSize=14;strokeWidth=2;" parent="1" vertex="1">
          <mxGeometry x="599" y="565" width="240" height="100" as="geometry" />
        </mxCell>
        <UserObject label="&lt;a href=&quot;https://docs.microsoft.com/en-us/dotnet/csharp/fundamentals/types/interfaces&quot;&gt;Interfaces&lt;/a&gt;" link="https://docs.microsoft.com/en-us/dotnet/csharp/fundamentals/types/interfaces" linkTarget="_blank" id="HOgNb5vJPWKjZWPz9B7e-37">
          <mxCell style="rounded=1;whiteSpace=wrap;html=1;fillColor=#dae8fc;strokeColor=#6c8ebf;strokeWidth=2;fontSize=14;" parent="HOgNb5vJPWKjZWPz9B7e-36" vertex="1">
            <mxGeometry x="15" y="40" width="100" height="40" as="geometry" />
          </mxCell>
        </UserObject>
        <UserObject label="&lt;a href=&quot;https://docs.microsoft.com/en-us/dotnet/csharp/language-reference/keywords/abstract&quot;&gt;Abstract Classes&lt;/a&gt;" link="https://docs.microsoft.com/en-us/dotnet/csharp/language-reference/keywords/abstract" linkTarget="_blank" id="HOgNb5vJPWKjZWPz9B7e-38">
          <mxCell style="rounded=1;whiteSpace=wrap;html=1;fillColor=#dae8fc;strokeColor=#6c8ebf;strokeWidth=2;fontSize=14;" parent="HOgNb5vJPWKjZWPz9B7e-36" vertex="1">
            <mxGeometry x="125" y="40" width="100" height="40" as="geometry" />
          </mxCell>
        </UserObject>
        <mxCell id="HOgNb5vJPWKjZWPz9B7e-41" value="Polymorphism" style="swimlane;rounded=1;fontSize=14;strokeWidth=2;" parent="1" vertex="1">
          <mxGeometry x="600" y="700" width="240" height="150" as="geometry" />
        </mxCell>
        <UserObject label="&lt;a href=&quot;https://docs.microsoft.com/en-us/dotnet/csharp/language-reference/keywords/virtual&quot;&gt;Virtual&lt;/a&gt;" link="https://docs.microsoft.com/en-us/dotnet/csharp/language-reference/keywords/virtual" linkTarget="_blank" id="HOgNb5vJPWKjZWPz9B7e-43">
          <mxCell style="rounded=1;whiteSpace=wrap;html=1;fillColor=#dae8fc;strokeColor=#6c8ebf;strokeWidth=2;fontSize=14;" parent="HOgNb5vJPWKjZWPz9B7e-41" vertex="1">
            <mxGeometry x="15" y="40" width="100" height="40" as="geometry" />
          </mxCell>
        </UserObject>
        <UserObject label="&lt;a href=&quot;https://docs.microsoft.com/en-us/dotnet/csharp/language-reference/keywords/override&quot;&gt;Override&lt;/a&gt;" link="https://docs.microsoft.com/en-us/dotnet/csharp/language-reference/keywords/override" linkTarget="_blank" id="HOgNb5vJPWKjZWPz9B7e-44">
          <mxCell style="rounded=1;whiteSpace=wrap;html=1;fillColor=#dae8fc;strokeColor=#6c8ebf;strokeWidth=2;fontSize=14;" parent="HOgNb5vJPWKjZWPz9B7e-41" vertex="1">
            <mxGeometry x="125" y="40" width="100" height="40" as="geometry" />
          </mxCell>
        </UserObject>
        <UserObject label="&lt;a href=&quot;https://docs.microsoft.com/en-us/dotnet/csharp/language-reference/keywords/base&quot;&gt;Using Base Classes&lt;/a&gt;" link="https://docs.microsoft.com/en-us/dotnet/csharp/language-reference/keywords/base" linkTarget="_blank" id="HOgNb5vJPWKjZWPz9B7e-42">
          <mxCell style="rounded=1;whiteSpace=wrap;html=1;fillColor=#dae8fc;strokeColor=#6c8ebf;strokeWidth=2;fontSize=14;" parent="HOgNb5vJPWKjZWPz9B7e-41" vertex="1">
            <mxGeometry x="15" y="90" width="100" height="40" as="geometry" />
          </mxCell>
        </UserObject>
        <mxCell id="TVtdVuU6rrKW41aySdb2-7" style="edgeStyle=orthogonalEdgeStyle;rounded=1;orthogonalLoop=1;jettySize=auto;html=1;exitX=0;exitY=0.5;exitDx=0;exitDy=0;entryX=1;entryY=0.5;entryDx=0;entryDy=0;fontSize=24;endArrow=none;endFill=0;strokeWidth=2;" parent="1" source="TVtdVuU6rrKW41aySdb2-2" target="TVtdVuU6rrKW41aySdb2-5" edge="1">
          <mxGeometry relative="1" as="geometry" />
        </mxCell>
        <mxCell id="TVtdVuU6rrKW41aySdb2-20" style="edgeStyle=orthogonalEdgeStyle;rounded=1;orthogonalLoop=1;jettySize=auto;html=1;exitX=0;exitY=0.5;exitDx=0;exitDy=0;entryX=1;entryY=0.5;entryDx=0;entryDy=0;fontSize=24;endArrow=none;endFill=0;strokeWidth=2;" parent="1" source="TVtdVuU6rrKW41aySdb2-2" target="TVtdVuU6rrKW41aySdb2-12" edge="1">
          <mxGeometry relative="1" as="geometry" />
        </mxCell>
        <mxCell id="TVtdVuU6rrKW41aySdb2-23" style="edgeStyle=orthogonalEdgeStyle;rounded=1;orthogonalLoop=1;jettySize=auto;html=1;exitX=1;exitY=0.5;exitDx=0;exitDy=0;entryX=0;entryY=0.5;entryDx=0;entryDy=0;fontSize=24;endArrow=none;endFill=0;strokeWidth=2;" parent="1" source="TVtdVuU6rrKW41aySdb2-2" target="TVtdVuU6rrKW41aySdb2-21" edge="1">
          <mxGeometry relative="1" as="geometry" />
        </mxCell>
        <mxCell id="TVtdVuU6rrKW41aySdb2-24" style="edgeStyle=orthogonalEdgeStyle;rounded=1;orthogonalLoop=1;jettySize=auto;html=1;exitX=1;exitY=0.5;exitDx=0;exitDy=0;entryX=0;entryY=0.5;entryDx=0;entryDy=0;fontSize=24;endArrow=none;endFill=0;strokeWidth=2;" parent="1" source="TVtdVuU6rrKW41aySdb2-2" target="TVtdVuU6rrKW41aySdb2-22" edge="1">
          <mxGeometry relative="1" as="geometry" />
        </mxCell>
        <mxCell id="TVtdVuU6rrKW41aySdb2-38" style="edgeStyle=orthogonalEdgeStyle;rounded=1;orthogonalLoop=1;jettySize=auto;html=1;exitX=0.5;exitY=1;exitDx=0;exitDy=0;entryX=0.5;entryY=0;entryDx=0;entryDy=0;fontSize=14;endArrow=none;endFill=0;strokeWidth=2;" parent="1" source="TVtdVuU6rrKW41aySdb2-2" target="lwvj8f8YE6O9QnCj63W--57" edge="1">
          <mxGeometry relative="1" as="geometry">
            <mxPoint x="420" y="1239.9999999999998" as="targetPoint" />
          </mxGeometry>
        </mxCell>
        <mxCell id="lwvj8f8YE6O9QnCj63W--29" style="edgeStyle=orthogonalEdgeStyle;rounded=1;orthogonalLoop=1;jettySize=auto;html=1;exitX=1;exitY=0.5;exitDx=0;exitDy=0;entryX=0;entryY=0.5;entryDx=0;entryDy=0;endArrow=none;endFill=0;strokeWidth=2;" parent="1" source="TVtdVuU6rrKW41aySdb2-2" target="quayTeWEfiAioYH7ORwF-3" edge="1">
          <mxGeometry relative="1" as="geometry" />
        </mxCell>
        <mxCell id="lwvj8f8YE6O9QnCj63W--53" style="edgeStyle=orthogonalEdgeStyle;rounded=1;orthogonalLoop=1;jettySize=auto;html=1;exitX=1;exitY=0.5;exitDx=0;exitDy=0;entryX=0;entryY=0.5;entryDx=0;entryDy=0;endArrow=none;endFill=0;strokeWidth=2;" parent="1" source="TVtdVuU6rrKW41aySdb2-2" target="TVtdVuU6rrKW41aySdb2-3" edge="1">
          <mxGeometry relative="1" as="geometry" />
        </mxCell>
        <mxCell id="lwvj8f8YE6O9QnCj63W--54" style="edgeStyle=orthogonalEdgeStyle;rounded=1;orthogonalLoop=1;jettySize=auto;html=1;exitX=0;exitY=0.5;exitDx=0;exitDy=0;entryX=1;entryY=0.5;entryDx=0;entryDy=0;endArrow=none;endFill=0;strokeWidth=2;" parent="1" source="TVtdVuU6rrKW41aySdb2-2" target="TVtdVuU6rrKW41aySdb2-16" edge="1">
          <mxGeometry relative="1" as="geometry" />
        </mxCell>
        <mxCell id="TVtdVuU6rrKW41aySdb2-2" value="&lt;font style=&quot;font-size: 14px&quot;&gt;Going Deeper&lt;/font&gt;" style="rounded=1;whiteSpace=wrap;html=1;fillColor=#fff2cc;strokeColor=#d6b656;strokeWidth=3;" parent="1" vertex="1">
          <mxGeometry x="320" y="967.5" width="200" height="40" as="geometry" />
        </mxCell>
        <UserObject label="&lt;a href=&quot;https://docs.microsoft.com/en-us/dotnet/csharp/linq/&quot;&gt;Linq&lt;/a&gt;" link="https://docs.microsoft.com/en-us/dotnet/csharp/linq/" linkTarget="_blank" id="TVtdVuU6rrKW41aySdb2-3">
          <mxCell style="rounded=1;whiteSpace=wrap;html=1;fillColor=#dae8fc;strokeColor=#6c8ebf;strokeWidth=2;fontSize=14;" parent="1" vertex="1">
            <mxGeometry x="599" y="890" width="48" height="40" as="geometry" />
          </mxCell>
        </UserObject>
        <UserObject label="&lt;a href=&quot;https://docs.microsoft.com/en-us/dotnet/csharp/programming-guide/classes-and-structs/object-and-collection-initializers&quot;&gt;Object and Collection Initializers&lt;/a&gt;" link="https://docs.microsoft.com/en-us/dotnet/csharp/programming-guide/classes-and-structs/object-and-collection-initializers" linkTarget="_blank" id="TVtdVuU6rrKW41aySdb2-5">
          <mxCell style="rounded=1;whiteSpace=wrap;html=1;fillColor=#dae8fc;strokeColor=#6c8ebf;strokeWidth=2;fontSize=14;" parent="1" vertex="1">
            <mxGeometry x="80" y="890" width="160" height="40" as="geometry" />
          </mxCell>
        </UserObject>
        <mxCell id="TVtdVuU6rrKW41aySdb2-12" value="Lambdas" style="swimlane;rounded=1;fontSize=14;strokeWidth=2;" parent="1" vertex="1">
          <mxGeometry x="10" y="940" width="230" height="95" as="geometry" />
        </mxCell>
        <UserObject label="&lt;a href=&quot;https://docs.microsoft.com/en-us/dotnet/csharp/language-reference/operators/lambda-expressions&quot;&gt;Arrow Functions&lt;/a&gt;" link="https://docs.microsoft.com/en-us/dotnet/csharp/language-reference/operators/lambda-expressions" linkTarget="_blank" id="TVtdVuU6rrKW41aySdb2-13">
          <mxCell style="rounded=1;whiteSpace=wrap;html=1;fillColor=#dae8fc;strokeColor=#6c8ebf;strokeWidth=2;fontSize=14;" parent="TVtdVuU6rrKW41aySdb2-12" vertex="1">
            <mxGeometry x="120" y="40" width="100" height="40" as="geometry" />
          </mxCell>
        </UserObject>
        <UserObject label="&lt;a href=&quot;https://docs.microsoft.com/en-us/dotnet/csharp/language-reference/operators/lambda-operator&quot;&gt;&quot;=&amp;gt;&quot; Operator&lt;/a&gt;" link="https://docs.microsoft.com/en-us/dotnet/csharp/language-reference/operators/lambda-operator" linkTarget="_blank" id="TVtdVuU6rrKW41aySdb2-14">
          <mxCell style="rounded=1;whiteSpace=wrap;html=1;fillColor=#dae8fc;strokeColor=#6c8ebf;strokeWidth=2;fontSize=14;" parent="TVtdVuU6rrKW41aySdb2-12" vertex="1">
            <mxGeometry x="10" y="40" width="100" height="40" as="geometry" />
          </mxCell>
        </UserObject>
        <UserObject label="Asynchronous &#xa;Programming" link="https://docs.microsoft.com/en-us/dotnet/csharp/programming-guide/concepts/async/" id="TVtdVuU6rrKW41aySdb2-16">
          <mxCell style="swimlane;rounded=1;fontSize=14;strokeWidth=2;startSize=40;" parent="1" vertex="1">
            <mxGeometry x="10" y="1050" width="230" height="185" as="geometry" />
          </mxCell>
        </UserObject>
        <UserObject label="&lt;a href=&quot;https://docs.microsoft.com/en-us/dotnet/csharp/programming-guide/concepts/async/&quot;&gt;Tasks&lt;/a&gt;" link="https://docs.microsoft.com/en-us/dotnet/csharp/programming-guide/concepts/async/" linkTarget="_blank" id="TVtdVuU6rrKW41aySdb2-17">
          <mxCell style="rounded=1;whiteSpace=wrap;html=1;fillColor=#dae8fc;strokeColor=#6c8ebf;strokeWidth=2;fontSize=14;" parent="TVtdVuU6rrKW41aySdb2-16" vertex="1">
            <mxGeometry x="120" y="60" width="100" height="40" as="geometry" />
          </mxCell>
        </UserObject>
        <UserObject label="&lt;a href=&quot;https://docs.microsoft.com/en-us/dotnet/csharp/language-reference/keywords/async&quot;&gt;Async&lt;/a&gt;&lt;a href=&quot;https://docs.microsoft.com/en-us/dotnet/csharp/language-reference/operators/await&quot;&gt;&lt;/a&gt;" link="https://docs.microsoft.com/en-us/dotnet/csharp/language-reference/keywords/async" linkTarget="_blank" id="TVtdVuU6rrKW41aySdb2-18">
          <mxCell style="rounded=1;whiteSpace=wrap;html=1;fillColor=#dae8fc;strokeColor=#6c8ebf;strokeWidth=2;fontSize=14;" parent="TVtdVuU6rrKW41aySdb2-16" vertex="1">
            <mxGeometry x="10" y="115" width="100" height="40" as="geometry" />
          </mxCell>
        </UserObject>
        <UserObject label="&lt;a href=&quot;https://docs.microsoft.com/en-us/dotnet/csharp/language-reference/operators/await&quot;&gt;Await&lt;/a&gt;" link="https://docs.microsoft.com/en-us/dotnet/csharp/language-reference/operators/await" linkTarget="_blank" id="lwvj8f8YE6O9QnCj63W--49">
          <mxCell style="rounded=1;whiteSpace=wrap;html=1;fillColor=#dae8fc;strokeColor=#6c8ebf;strokeWidth=2;fontSize=14;" parent="TVtdVuU6rrKW41aySdb2-16" vertex="1">
            <mxGeometry x="120" y="115" width="100" height="40" as="geometry" />
          </mxCell>
        </UserObject>
        <UserObject label="&lt;a href=&quot;https://docs.microsoft.com/en-us/dotnet/standard/threading/using-threads-and-threading&quot;&gt;Threads&lt;/a&gt;" link="https://docs.microsoft.com/en-us/dotnet/standard/threading/using-threads-and-threading" linkTarget="_blank" id="lwvj8f8YE6O9QnCj63W--50">
          <mxCell style="rounded=1;whiteSpace=wrap;html=1;fillColor=#dae8fc;strokeColor=#6c8ebf;strokeWidth=2;fontSize=14;" parent="TVtdVuU6rrKW41aySdb2-16" vertex="1">
            <mxGeometry x="10" y="60" width="100" height="40" as="geometry" />
          </mxCell>
        </UserObject>
        <UserObject label="&lt;a href=&quot;https://docs.microsoft.com/en-us/dotnet/csharp/programming-guide/concepts/serialization/&quot;&gt;Serialization&lt;/a&gt;" link="https://docs.microsoft.com/en-us/dotnet/csharp/programming-guide/concepts/serialization/" linkTarget="_blank" id="TVtdVuU6rrKW41aySdb2-21">
          <mxCell style="rounded=1;whiteSpace=wrap;html=1;fillColor=#dae8fc;strokeColor=#6c8ebf;strokeWidth=2;fontSize=14;" parent="1" vertex="1">
            <mxGeometry x="600" y="993.75" width="100" height="40" as="geometry" />
          </mxCell>
        </UserObject>
        <UserObject label="&lt;a href=&quot;https://docs.microsoft.com/en-us/dotnet/csharp/programming-guide/concepts/reflection&quot;&gt;Reflection&lt;/a&gt;" link="https://docs.microsoft.com/en-us/dotnet/csharp/programming-guide/concepts/reflection" linkTarget="_blank" id="TVtdVuU6rrKW41aySdb2-22">
          <mxCell style="rounded=1;whiteSpace=wrap;html=1;fillColor=#dae8fc;strokeColor=#6c8ebf;strokeWidth=2;fontSize=14;" parent="1" vertex="1">
            <mxGeometry x="600" y="1043.75" width="90" height="40" as="geometry" />
          </mxCell>
        </UserObject>
        <UserObject label="&lt;a href=&quot;https://docs.microsoft.com/en-us/dotnet/csharp/fundamentals/types/generics&quot;&gt;Generics&lt;/a&gt;" link="https://docs.microsoft.com/en-us/dotnet/csharp/fundamentals/types/generics" linkTarget="_blank" id="quayTeWEfiAioYH7ORwF-3">
          <mxCell style="rounded=1;whiteSpace=wrap;html=1;fillColor=#dae8fc;strokeColor=#6c8ebf;strokeWidth=2;fontSize=14;" parent="1" vertex="1">
            <mxGeometry x="600" y="943.75" width="80" height="40" as="geometry" />
          </mxCell>
        </UserObject>
        <UserObject label="Access Modifiers" link="https://docs.microsoft.com/en-us/dotnet/csharp/programming-guide/classes-and-structs/access-modifiers" id="lwvj8f8YE6O9QnCj63W--2">
          <mxCell style="swimlane;rounded=1;fontSize=14;strokeWidth=2;" parent="1" vertex="1">
            <mxGeometry x="10" y="700" width="230" height="150" as="geometry" />
          </mxCell>
        </UserObject>
        <UserObject label="&lt;a href=&quot;https://docs.microsoft.com/en-us/dotnet/csharp/language-reference/keywords/public&quot;&gt;Public&lt;/a&gt;" link="https://docs.microsoft.com/en-us/dotnet/csharp/language-reference/keywords/public" linkTarget="_blank" id="lwvj8f8YE6O9QnCj63W--3">
          <mxCell style="rounded=1;whiteSpace=wrap;html=1;fillColor=#dae8fc;strokeColor=#6c8ebf;strokeWidth=2;fontSize=14;" parent="lwvj8f8YE6O9QnCj63W--2" vertex="1">
            <mxGeometry x="10" y="40" width="100" height="40" as="geometry" />
          </mxCell>
        </UserObject>
        <UserObject label="&lt;a href=&quot;https://docs.microsoft.com/en-us/dotnet/csharp/language-reference/keywords/private&quot;&gt;Private&lt;/a&gt;" link="https://docs.microsoft.com/en-us/dotnet/csharp/language-reference/keywords/private" linkTarget="_blank" id="lwvj8f8YE6O9QnCj63W--4">
          <mxCell style="rounded=1;whiteSpace=wrap;html=1;fillColor=#dae8fc;strokeColor=#6c8ebf;strokeWidth=2;fontSize=14;" parent="lwvj8f8YE6O9QnCj63W--2" vertex="1">
            <mxGeometry x="120" y="40" width="100" height="40" as="geometry" />
          </mxCell>
        </UserObject>
        <UserObject label="&lt;a href=&quot;https://docs.microsoft.com/en-us/dotnet/csharp/language-reference/keywords/internal&quot;&gt;Internal&lt;/a&gt;" link="https://docs.microsoft.com/en-us/dotnet/csharp/language-reference/keywords/internal" linkTarget="_blank" id="lwvj8f8YE6O9QnCj63W--5">
          <mxCell style="rounded=1;whiteSpace=wrap;html=1;fillColor=#dae8fc;strokeColor=#6c8ebf;strokeWidth=2;fontSize=14;" parent="lwvj8f8YE6O9QnCj63W--2" vertex="1">
            <mxGeometry x="10" y="90" width="100" height="40" as="geometry" />
          </mxCell>
        </UserObject>
        <UserObject label="&lt;a href=&quot;https://docs.microsoft.com/en-us/dotnet/csharp/language-reference/keywords/protected&quot;&gt;Protected&lt;/a&gt;" link="https://docs.microsoft.com/en-us/dotnet/csharp/language-reference/keywords/protected" linkTarget="_blank" id="lwvj8f8YE6O9QnCj63W--7">
          <mxCell style="rounded=1;whiteSpace=wrap;html=1;fillColor=#dae8fc;strokeColor=#6c8ebf;strokeWidth=2;fontSize=14;" parent="lwvj8f8YE6O9QnCj63W--2" vertex="1">
            <mxGeometry x="120" y="90" width="100" height="40" as="geometry" />
          </mxCell>
        </UserObject>
        <UserObject label="Collections" link="https://docs.microsoft.com/en-us/dotnet/csharp/programming-guide/concepts/collections" id="lwvj8f8YE6O9QnCj63W--36">
          <mxCell style="swimlane;rounded=1;fontSize=14;strokeWidth=2;" parent="1" vertex="1">
            <mxGeometry x="600" y="130" width="240" height="150" as="geometry" />
          </mxCell>
        </UserObject>
        <UserObject label="&lt;a href=&quot;https://docs.microsoft.com/en-us/dotnet/csharp/programming-guide/arrays/&quot;&gt;Array&lt;/a&gt;" link="https://docs.microsoft.com/en-us/dotnet/csharp/programming-guide/arrays/" linkTarget="_blank" id="lwvj8f8YE6O9QnCj63W--37">
          <mxCell style="rounded=1;whiteSpace=wrap;html=1;fillColor=#dae8fc;strokeColor=#6c8ebf;strokeWidth=2;fontSize=14;" parent="lwvj8f8YE6O9QnCj63W--36" vertex="1">
            <mxGeometry x="15" y="40" width="100" height="40" as="geometry" />
          </mxCell>
        </UserObject>
        <UserObject label="&lt;a href=&quot;https://docs.microsoft.com/en-us/dotnet/api/system.collections.generic.list-1&quot;&gt;List&lt;/a&gt;" link="https://docs.microsoft.com/en-us/dotnet/api/system.collections.generic.list-1" linkTarget="_blank" id="lwvj8f8YE6O9QnCj63W--38">
          <mxCell style="rounded=1;whiteSpace=wrap;html=1;fillColor=#dae8fc;strokeColor=#6c8ebf;strokeWidth=2;fontSize=14;" parent="lwvj8f8YE6O9QnCj63W--36" vertex="1">
            <mxGeometry x="125" y="40" width="100" height="40" as="geometry" />
          </mxCell>
        </UserObject>
        <UserObject label="&lt;a href=&quot;https://docs.microsoft.com/en-us/dotnet/api/system.collections.generic.dictionary-2&quot;&gt;Dictionary&lt;/a&gt;" link="https://docs.microsoft.com/en-us/dotnet/api/system.collections.generic.dictionary-2" linkTarget="_blank" id="lwvj8f8YE6O9QnCj63W--39">
          <mxCell style="rounded=1;whiteSpace=wrap;html=1;fillColor=#dae8fc;strokeColor=#6c8ebf;strokeWidth=2;fontSize=14;" parent="lwvj8f8YE6O9QnCj63W--36" vertex="1">
            <mxGeometry x="15" y="90" width="100" height="40" as="geometry" />
          </mxCell>
        </UserObject>
        <UserObject label="Variables and Data Types" link="https://docs.microsoft.com/en-us/dotnet/csharp/language-reference/builtin-types/built-in-types" id="lwvj8f8YE6O9QnCj63W--41">
          <mxCell style="swimlane;rounded=1;fontSize=14;strokeWidth=2;" parent="1" vertex="1">
            <mxGeometry x="11" y="180" width="230" height="200" as="geometry" />
          </mxCell>
        </UserObject>
        <UserObject label="&lt;a href=&quot;https://docs.microsoft.com/en-us/dotnet/csharp/language-reference/builtin-types/integral-numeric-types&quot;&gt;Int&lt;/a&gt;" link="https://docs.microsoft.com/en-us/dotnet/csharp/language-reference/builtin-types/integral-numeric-types" linkTarget="_blank" id="lwvj8f8YE6O9QnCj63W--14">
          <mxCell style="rounded=1;whiteSpace=wrap;html=1;fillColor=#dae8fc;strokeColor=#6c8ebf;strokeWidth=2;fontSize=14;" parent="lwvj8f8YE6O9QnCj63W--41" vertex="1">
            <mxGeometry x="120" y="40" width="100" height="40" as="geometry" />
          </mxCell>
        </UserObject>
        <UserObject label="&lt;a href=&quot;https://docs.microsoft.com/en-us/dotnet/csharp/language-reference/builtin-types/reference-types&quot;&gt;String&lt;/a&gt;" link="https://docs.microsoft.com/en-us/dotnet/csharp/language-reference/builtin-types/reference-types" linkTarget="_blank" id="lwvj8f8YE6O9QnCj63W--15">
          <mxCell style="rounded=1;whiteSpace=wrap;html=1;fillColor=#dae8fc;strokeColor=#6c8ebf;strokeWidth=2;fontSize=14;" parent="lwvj8f8YE6O9QnCj63W--41" vertex="1">
            <mxGeometry x="10" y="40" width="100" height="40" as="geometry" />
          </mxCell>
        </UserObject>
        <UserObject label="&lt;div&gt;&lt;a href=&quot;https://docs.microsoft.com/en-us/dotnet/csharp/language-reference/builtin-types/floating-point-numeric-types&quot;&gt;Float/Double&lt;/a&gt;&lt;/div&gt;&lt;div&gt;&lt;a href=&quot;https://docs.microsoft.com/en-us/dotnet/csharp/language-reference/builtin-types/floating-point-numeric-types&quot;&gt;/Decimal&lt;/a&gt;&lt;/div&gt;" link="https://docs.microsoft.com/en-us/dotnet/csharp/language-reference/builtin-types/floating-point-numeric-types" linkTarget="_blank" id="lwvj8f8YE6O9QnCj63W--16">
          <mxCell style="rounded=1;whiteSpace=wrap;html=1;fillColor=#dae8fc;strokeColor=#6c8ebf;strokeWidth=2;fontSize=14;" parent="lwvj8f8YE6O9QnCj63W--41" vertex="1">
            <mxGeometry x="120" y="90" width="100" height="40" as="geometry" />
          </mxCell>
        </UserObject>
        <UserObject label="&lt;a href=&quot;https://docs.microsoft.com/en-us/dotnet/csharp/language-reference/builtin-types/bool&quot;&gt;Boolean&lt;/a&gt;" linkTarget="_blank" link="https://docs.microsoft.com/en-us/dotnet/csharp/language-reference/builtin-types/bool" id="lwvj8f8YE6O9QnCj63W--17">
          <mxCell style="rounded=1;whiteSpace=wrap;html=1;fillColor=#dae8fc;strokeColor=#6c8ebf;strokeWidth=2;fontSize=14;" parent="lwvj8f8YE6O9QnCj63W--41" vertex="1">
            <mxGeometry x="10" y="90" width="100" height="40" as="geometry" />
          </mxCell>
        </UserObject>
        <UserObject label="&lt;a href=&quot;https://docs.microsoft.com/en-us/dotnet/csharp/fundamentals/types/anonymous-types&quot;&gt;Var&lt;/a&gt;" link="https://docs.microsoft.com/en-us/dotnet/csharp/fundamentals/types/anonymous-types" linkTarget="_blank" id="lwvj8f8YE6O9QnCj63W--18">
          <mxCell style="rounded=1;whiteSpace=wrap;html=1;fillColor=#dae8fc;strokeColor=#6c8ebf;strokeWidth=2;fontSize=14;" parent="lwvj8f8YE6O9QnCj63W--41" vertex="1">
            <mxGeometry x="10" y="140" width="100" height="40" as="geometry" />
          </mxCell>
        </UserObject>
        <UserObject label="&lt;a href=&quot;https://docs.microsoft.com/en-us/dotnet/csharp/language-reference/keywords/using-directive&quot;&gt;`Using` directives&lt;/a&gt;" link="https://docs.microsoft.com/en-us/dotnet/csharp/language-reference/keywords/using-directive" linkTarget="_blank" id="lwvj8f8YE6O9QnCj63W--47">
          <mxCell style="rounded=1;whiteSpace=wrap;html=1;fillColor=#dae8fc;strokeColor=#6c8ebf;strokeWidth=2;fontSize=14;" parent="1" vertex="1">
            <mxGeometry x="599" y="390" width="131" height="40" as="geometry" />
          </mxCell>
        </UserObject>
        <mxCell id="lwvj8f8YE6O9QnCj63W--57" value="&lt;h1 style=&quot;line-height: 2&quot; align=&quot;center&quot;&gt;Move on to a .NET Roadmap&lt;br&gt;&lt;/h1&gt;&lt;div align=&quot;left&quot;&gt;&lt;blockquote&gt;&lt;p style=&quot;font-size: 14px&quot;&gt;&lt;font style=&quot;font-size: 14px&quot;&gt;Congrats! Now that you have a solid understanding of the language features of C#, the .NET ecosystem has many options for your next path:&lt;/font&gt;&lt;/p&gt;&lt;/blockquote&gt;&lt;/div&gt;&lt;blockquote&gt;&lt;p style=&quot;font-size: 14px&quot; align=&quot;left&quot;&gt;&lt;font style=&quot;font-size: 14px&quot;&gt;- Web Developer (.NET Core)&lt;br&gt;&lt;/font&gt;&lt;/p&gt;&lt;p style=&quot;font-size: 14px&quot; align=&quot;left&quot;&gt;&lt;font style=&quot;font-size: 14px&quot;&gt;- Desktop/Mobile Developer (Xamarin / MAUI)&lt;br&gt;&lt;/font&gt;&lt;/p&gt;&lt;p style=&quot;font-size: 14px&quot; align=&quot;left&quot;&gt;&lt;font style=&quot;font-size: 14px&quot;&gt;- Data Engineer (Machine learning with ML.NET)&lt;br&gt;&lt;/font&gt;&lt;/p&gt;&lt;p style=&quot;font-size: 14px&quot; align=&quot;left&quot;&gt;&lt;font style=&quot;font-size: 14px&quot;&gt;- Game Developer (Unity)&lt;/font&gt;&lt;br&gt;&lt;/p&gt;&lt;/blockquote&gt;" style="text;html=1;spacing=5;spacingTop=-20;whiteSpace=wrap;overflow=hidden;rounded=0;strokeColor=#CCCCCC;strokeWidth=2;glass=0;fillColor=default;align=center;" parent="1" vertex="1">
          <mxGeometry x="176.25" y="1280" width="487.5" height="260" as="geometry" />
        </mxCell>
      </root>
    </mxGraphModel>
  </diagram>
</mxfile>
